# xmcd CD database file
#
# Track frame offsets:
#	150
#	48461
#	94424
#	157997
#	187891
#	215698
#	245302
#	296351
#	319789
#
# Disc length: 4641 seconds
#
# Revision: 0
# Processed by: cddbd v1.5.2PL0 Copyright (c) Steve Scherf et al.
# Submitted via: CDex 1.70beta2
#
DISCID=7a121f09
DTITLE=Tony Bennett - Radio Show and Interview - Homestory 1997 Showtime auf 88.8 [Disc 1]
DYEAR=1997
DGENRE=Jazz
TTITLE0=The Good Life - Einleitung
TTITLE1=Just In Time - Interviewbeginn mit Rückblicken
TTITLE2=Let's Face The Music And Dance - 2 Entdeckungen und Beginn
TTITLE3=Out Of This World - Lehren
TTITLE4=New York, New York - Showbusiness Legenden
TTITLE5=Reisen und Malen
TTITLE6=I Thought About You - Tony singt Sinatra and Holiday
TTITLE7=I Left My Heart in San Francisco - Rosemary Clooney
TTITLE8=Where Did The Magic Go - Abspann Teil 1
EXTD=YEAR: 1997
EXTT0=
EXTT1=
EXTT2=
EXTT3=
EXTT4=
EXTT5=
EXTT6=
EXTT7=
EXTT8=
PLAYORDER=
